<svg id="Layer_2" data-name="Layer 2" xmlns="http://www.w3.org/2000/svg" viewBox="0 0 760.61 594.76"><defs><style>.cls-1{fill:#9a303a;}.cls-2{fill:#dd953e;}.cls-3{fill:#2c302f;}.cls-4{fill:#bf3b47;}</style></defs><path class="cls-1" d="M727.89,586s-68.64-165.88,124.8-301.31c0,0-35-18.12-88.76,6-10.92,4.91,14.36-45.27,14.36-45.27a276.26,276.26,0,0,0-70.84,40.06c-10,7.88,4.15-39.64,4.15-39.64S674.93,258.49,649,284.23c-1,1-17.7-31.81-17.7-31.81s-37,21.26-39.89,66.93c0,0-1.38-6.54-14.83-27.26-63,49.45-71.84,96-51.27,231.81Z" transform="translate(-117.21 -195.47)"/><path class="cls-2" d="M827.65,586l50.18-7s-29.53-48.31-61.68-59.14S827.65,586,827.65,586Z" transform="translate(-117.21 -195.47)"/><path class="cls-3" d="M827.65,586,756,633.27s48.64-104.5,64.68-111.72Z" transform="translate(-117.21 -195.47)"/><path class="cls-4" d="M117.21,741.26s10.7,36.35,39.56,46.77S411.26,769.43,446.24,752c3.2-1.61,132.84,6.41,209.81-18.18,18-5.75,84.46-41.43,106.92-85s40.17-112.62,57.73-127.23c3.59-3-39-62-77-53.46-6.28,30.61-44.1,71.37-44.1,71.37s-190-77.78-144.33-344c0,0-42.87,13.82-66.55,77-4.82,12.82-25.23-48.12-25.23-48.12s-19,40.17-24.49,89.81c-1.6,14.43-28.87-35.28-28.87-35.28s-19.24,40-19.24,81.79c0,1.6-40.09-11.23-40.09-11.23s-13.1,43,21.65,82.19c0,0-.8,4.54-28.47-1.2-10.56,91,15.17,131.1,142.06,223.71C415.71,734.69,117.21,741.26,117.21,741.26Z" transform="translate(-117.21 -195.47)"/><path class="cls-1" d="M344.08,430.41c-10.56,91,15.16,131.1,142.06,223.71l101-50.25C486.24,578,385.33,528.59,344.08,430.41Z" transform="translate(-117.21 -195.47)"/><path class="cls-1" d="M134,771.58c5.83,6.81,13.34,13,22.82,16.45,28.87,10.42,254.49-18.6,289.47-36.08,3.2-1.61,132.84,6.41,209.81-18.18,12.83-4.1,50.27-23.39,78.85-49.91-97,42.43-180.95,55.34-288.4,43.5C354.79,768.2,248.69,780.14,134,771.58Z" transform="translate(-117.21 -195.47)"/></svg>