<svg xmlns="http://www.w3.org/2000/svg" viewBox="0 0 697.87 683.94"><defs><style>.cls-1{fill:#f04b23;}.cls-2{fill:#231f20;}.cls-3{fill:#fff;}.cls-4{fill:#1d1b4f;}.cls-5{fill:#ef4b24;}</style></defs><g id="Layer_2" data-name="Layer 2"><g id="Layer_1-2" data-name="Layer 1"><rect class="cls-1" x="456.44" y="288.51" width="76.94" height="15.25" rx="7.62" transform="matrix(0.87, 0.5, -0.5, 0.87, 214.37, -207.78)"/><rect class="cls-1" x="476.28" y="234.89" width="76.94" height="15.25" rx="7.62"/><rect class="cls-1" x="476.25" y="180.91" width="76.94" height="15.25" rx="7.62" transform="translate(-31.26 139.64) rotate(-15)"/><rect class="cls-1" x="462.97" y="131.36" width="76.94" height="15.25" rx="7.62" transform="translate(-2.31 269.34) rotate(-30)"/><rect class="cls-1" x="433.24" y="82.77" width="76.94" height="15.25" rx="7.62" transform="translate(74.24 360.02) rotate(-45)"/><rect class="cls-1" x="374.47" y="45.6" width="76.94" height="15.25" rx="7.62" transform="translate(254.65 438.32) rotate(-75)"/><rect class="cls-1" x="307.2" y="30.84" width="76.94" height="15.25" rx="7.62" transform="translate(307.2 384.14) rotate(-90)"/><rect class="cls-1" x="158.56" y="288.51" width="76.94" height="15.25" rx="7.62" transform="translate(515.73 454.07) rotate(150)"/><rect class="cls-1" x="138.72" y="234.89" width="76.94" height="15.25" rx="7.62" transform="translate(354.37 485.03) rotate(-180)"/><polygon class="cls-2" points="346.57 574.95 104.17 423.07 102.12 412.31 346.57 507.33 346.57 574.95"/><polygon class="cls-2" points="346.57 574.95 588.98 423.07 591.02 412.31 346.57 507.33 346.57 574.95"/><rect class="cls-1" x="138.75" y="180.91" width="76.94" height="15.25" rx="7.62" transform="translate(299.61 416.52) rotate(-165)"/><rect class="cls-1" x="152.03" y="131.36" width="76.94" height="15.25" rx="7.62" transform="matrix(-0.87, -0.5, 0.5, -0.87, 285.98, 354.6)"/><rect class="cls-1" x="181.76" y="82.77" width="76.94" height="15.25" rx="7.62" transform="translate(312.04 310.03) rotate(-135)"/><rect class="cls-1" x="240.53" y="45.6" width="76.94" height="15.25" rx="7.62" transform="translate(299.79 336.49) rotate(-105)"/><path class="cls-3" d="M346.57,563.21V575S236,472.82,102.12,413.59c1.17.42,0,18.38,0,18.38S274,535.12,346.57,575"/><path class="cls-4" d="M102.12,432v16a985,985,0,0,1,94.39,40.19"/><path class="cls-5" d="M188.29,502.61s-99.07-48.34-102-52.6c-.85,1.88-8.17,10.06-8.17,10.06s90.72,39.48,110.13,43.39"/><path class="cls-4" d="M206,524.23c2.19.44-123.07-50.9-133.45-55.66-8.34,2.89-9.36,7.15-16,9.7C60.29,480.31,186.41,520.31,206,524.23Z"/><path class="cls-4" d="M256.2,307.72c1.36,7.83,4.43,16.68,3.07,16.68s-60,18.72-111.9,94.64c-13.58-2.56-16.09-3-16.09-3S173.82,333.25,256.2,307.72Z"/><path class="cls-1" d="M593.88,412.06C458.56,423.29,346.57,506,346.57,506s-112-82.72-247.3-93.95c-6.13,1,120.32,30.13,247.3,151.15C473.56,442.19,600,413.08,593.88,412.06Z"/><path class="cls-3" d="M346.57,563.21V575S457.19,472.82,591,413.59c-1.16.42,0,18.38,0,18.38S419.18,535.12,346.57,575"/><path class="cls-4" d="M591,432v16a984.27,984.27,0,0,0-94.38,40.19"/><path class="cls-5" d="M504.86,502.61s99.07-48.34,102-52.6c.85,1.88,8.17,10.06,8.17,10.06s-90.72,39.48-110.13,43.39"/><path class="cls-4" d="M487.16,524.23c-2.2.44,123.06-50.9,133.45-55.66,8.34,2.89,9.36,7.15,16,9.7C632.86,480.31,506.73,520.31,487.16,524.23Z"/><path class="cls-4" d="M437,307.72c-1.36,7.83-4.43,16.68-3.07,16.68s60.05,18.72,111.9,94.64c13.57-2.56,16.09-3,16.09-3S519.33,333.25,437,307.72Z"/><path class="cls-2" d="M6.13,489.76,320.68,571s-2.61,44.93,27,44.42S375.83,571,375.83,571l313.53-81.19L695.49,500,382.47,575s1.47,44.94-34.75,45.45-33.17-44.94-33.17-44.94L0,502Z"/><path class="cls-1" d="M21,586.72v47.43H8.68V586.72Z"/><path class="cls-1" d="M67,586.72v47.43H56.18v-32l-4.29,32H44.23L39.7,602.87v31.28H28.91V586.72h16c.47,2.85,1,6.22,1.46,10.09l1.75,12.06,2.84-22.15Z"/><path class="cls-1" d="M74.85,586.72H87.28a29.37,29.37,0,0,1,7.74.79,8.67,8.67,0,0,1,4.08,2.29,7.81,7.81,0,0,1,1.84,3.62,32.39,32.39,0,0,1,.49,6.57v4.14a17.33,17.33,0,0,1-.94,6.62,6.44,6.44,0,0,1-3.44,3.19,16.36,16.36,0,0,1-6.55,1.11H87.19v19.1H74.85Zm12.34,8.12v12.07l.91,0a2.83,2.83,0,0,0,2.35-.84c.44-.55.66-1.71.66-3.47v-3.9c0-1.62-.25-2.67-.76-3.16S88.79,594.84,87.19,594.84Z"/><path class="cls-1" d="M127.74,586.72l7,47.43h-12.6l-.67-8.52h-4.41l-.74,8.52H103.62l6.29-47.43Zm-6.54,30.5q-.93-8.06-1.88-19.92-1.87,13.62-2.36,19.92Z"/><path class="cls-1" d="M168.62,607.38H156.29v-8.25a14.91,14.91,0,0,0-.39-4.48,1.71,1.71,0,0,0-1.75-.9,1.83,1.83,0,0,0-1.93,1.09,16.22,16.22,0,0,0-.41,4.69v22a15.14,15.14,0,0,0,.41,4.51,2.11,2.11,0,0,0,3.65,0,17.49,17.49,0,0,0,.42-5v-6h12.33V617q0,7.37-1,10.44a10.68,10.68,0,0,1-4.6,5.4,15.74,15.74,0,0,1-8.78,2.32,18.21,18.21,0,0,1-8.94-2,9.53,9.53,0,0,1-4.65-5.44q-1.16-3.46-1.15-10.44V603.45a60.17,60.17,0,0,1,.36-7.69,10.77,10.77,0,0,1,2.09-4.94,11.65,11.65,0,0,1,4.84-3.73,19.81,19.81,0,0,1,16.09.74,10.09,10.09,0,0,1,4.66,5.26q1.11,3.13,1.11,9.78Z"/><path class="cls-1" d="M200.83,586.72v9.5h-7.32v37.93H181.18V596.22h-7.3v-9.5Z"/><path class="cls-1" d="M206.59,586.72h20.88v9.5h-8.55v9h7.62v9h-7.62v19.92H206.59Z"/><path class="cls-1" d="M261.44,586.72v31.7a55.92,55.92,0,0,1-.35,7.58,10.42,10.42,0,0,1-2.08,4.48,10.83,10.83,0,0,1-4.56,3.48,17,17,0,0,1-6.66,1.19,18.65,18.65,0,0,1-7.5-1.41,11.23,11.23,0,0,1-4.87-3.66,10.11,10.11,0,0,1-1.9-4.76c-.2-1.67-.29-5.18-.29-10.53V586.72h12.33v35.57a13.8,13.8,0,0,0,.34,4,1.31,1.31,0,0,0,1.36.86,1.42,1.42,0,0,0,1.51-1,18.05,18.05,0,0,0,.33-4.5V586.72Z"/><path class="cls-1" d="M281.49,586.72v37.94H289v9.49H269.15V586.72Z"/><path class="cls-4" d="M417.8,586.72h20.57v9.5h-8.24v9h7.71v9h-7.71v10.43h9.06v9.49H417.8Z"/><path class="cls-4" d="M445.67,586.72h9.23q8.94,0,12.09.82a9.32,9.32,0,0,1,4.79,2.7,8.62,8.62,0,0,1,2.05,4.17,63.75,63.75,0,0,1,.41,9v16.61a38.57,38.57,0,0,1-.6,8.54,6.39,6.39,0,0,1-2.1,3.37,8.68,8.68,0,0,1-3.69,1.7,33.54,33.54,0,0,1-6.62.48H445.67ZM458,594.84V626c1.77,0,2.87-.36,3.28-1.07s.61-2.65.61-5.82V600.73a25.69,25.69,0,0,0-.2-4.13,2,2,0,0,0-.94-1.34A6.16,6.16,0,0,0,458,594.84Z"/><path class="cls-4" d="M509.81,586.72v31.7a54.27,54.27,0,0,1-.35,7.58,10.31,10.31,0,0,1-2.08,4.48,10.8,10.8,0,0,1-4.55,3.48,17,17,0,0,1-6.67,1.19,18.72,18.72,0,0,1-7.5-1.41,11.13,11.13,0,0,1-4.86-3.66,10.12,10.12,0,0,1-1.91-4.76q-.28-2.51-.29-10.53V586.72h12.33v35.57a14.19,14.19,0,0,0,.34,4,1.32,1.32,0,0,0,1.36.86,1.42,1.42,0,0,0,1.51-1,17.38,17.38,0,0,0,.34-4.5V586.72Z"/><path class="cls-4" d="M546.33,607.38H534v-8.25a14.91,14.91,0,0,0-.39-4.48,1.71,1.71,0,0,0-1.75-.9,1.83,1.83,0,0,0-1.93,1.09,16.6,16.6,0,0,0-.41,4.69v22a15.5,15.5,0,0,0,.41,4.51,1.76,1.76,0,0,0,1.85,1,1.74,1.74,0,0,0,1.8-1,17.49,17.49,0,0,0,.42-5v-6h12.34V617q0,7.37-1,10.44a10.68,10.68,0,0,1-4.6,5.4,15.74,15.74,0,0,1-8.78,2.32,18.14,18.14,0,0,1-8.93-2,9.52,9.52,0,0,1-4.66-5.44q-1.14-3.46-1.14-10.44V603.45a60.58,60.58,0,0,1,.35-7.69,10.77,10.77,0,0,1,2.09-4.94,11.78,11.78,0,0,1,4.84-3.73,19.83,19.83,0,0,1,16.1.74,10.11,10.11,0,0,1,4.65,5.26q1.13,3.13,1.12,9.78Z"/><path class="cls-4" d="M575,586.72l7,47.43h-12.6l-.66-8.52h-4.41l-.75,8.52H550.89l6.29-47.43Zm-6.54,30.5q-.93-8.06-1.87-19.92-1.89,13.62-2.37,19.92Z"/><path class="cls-4" d="M608.63,586.72v9.5h-7.32v37.93H589V596.22h-7.29v-9.5Z"/><path class="cls-4" d="M626.72,586.72v47.43H614.39V586.72Z"/><path class="cls-4" d="M662.79,614.5c0,4.76-.11,8.14-.33,10.12a11.34,11.34,0,0,1-6.9,9.21,17.43,17.43,0,0,1-7,1.32,17.86,17.86,0,0,1-6.84-1.24,11.43,11.43,0,0,1-7.08-9.16,101.51,101.51,0,0,1-.35-10.25v-8.12c0-4.76.11-8.14.34-10.12a11.31,11.31,0,0,1,6.9-9.21,17.39,17.39,0,0,1,7-1.32,17.86,17.86,0,0,1,6.84,1.24,11.33,11.33,0,0,1,4.88,3.74,11.15,11.15,0,0,1,2.19,5.42,98.53,98.53,0,0,1,.35,10.25Zm-12.33-15.59a14.36,14.36,0,0,0-.37-4.23,1.44,1.44,0,0,0-1.5-.93,1.67,1.67,0,0,0-1.48.75c-.35.5-.52,2-.52,4.41v22.15a22.07,22.07,0,0,0,.34,5.1,1.47,1.47,0,0,0,1.57,1,1.52,1.52,0,0,0,1.61-1.11,23.75,23.75,0,0,0,.35-5.3Z"/><path class="cls-4" d="M697.87,586.72v47.43H687.06l-6.41-21.56v21.56H670.33V586.72h10.32l6.91,21.36V586.72Z"/><path class="cls-2" d="M61.25,652l-.4,2.61q-4.55-.21-9.67-.21-.07.93-.51,5.72l-.16,1.65q4.43,0,7.91-.21l-.3,2.62q-3.66-.17-7.87-.16-.48,4.51-.78,8.47,5.56,0,10.66-.26l-.44,2.65H46.24q.36-2.48,1.49-12c.44-4.13.68-7.75.74-10.86Z"/><path class="cls-2" d="M88.83,662.83q0,2-.4,6t-.39,6l-3,.18c0-.9.17-2.73.5-5.47s.5-4.64.5-5.69a5.35,5.35,0,0,0-.61-3,2.17,2.17,0,0,0-1.92-.87,4.59,4.59,0,0,0-3.81,2.32,12,12,0,0,0-1.92,5.72q-.42,4.29-.42,6.78l-3,.18c0-.79.17-2.59.51-5.42s.51-4.74.51-5.74a5.44,5.44,0,0,0-.61-3A2.18,2.18,0,0,0,72.9,660c-1.41,0-2.67.82-3.76,2.44a12.24,12.24,0,0,0-2,5.6q-.42,4.24-.59,6.78l-2.87.18a113,113,0,0,0,1.23-12.31,43.07,43.07,0,0,0-.28-4.5l3-.44c.07,1.15.11,2.52.11,4.1h.14q2-4.27,5.92-4.27a4,4,0,0,1,3.15,1.2,4.4,4.4,0,0,1,1,3.07h.16c1.46-2.85,3.48-4.27,6.08-4.27C87.3,657.61,88.83,659.35,88.83,662.83Z"/><path class="cls-2" d="M108.73,664.39a12.28,12.28,0,0,1-2.43,7.85,7.86,7.86,0,0,1-6.54,3.09,6.05,6.05,0,0,1-4.09-1.16h-.14q-.51,4.88-.78,8.54l-3.12.18q2.2-16.21,2.21-20.69a33,33,0,0,0-.28-4l3-.44c.07,1,.11,2.34.11,4.1h.14q2.31-4.27,6.36-4.27a5,5,0,0,1,4,1.83A7.46,7.46,0,0,1,108.73,664.39Zm-3,1.06q0-5.41-3.81-5.42c-1.27,0-2.51.81-3.73,2.41a10.65,10.65,0,0,0-2.11,5.63l-.35,4a6.45,6.45,0,0,0,3.31,1,6,6,0,0,0,5-2.12A8.6,8.6,0,0,0,105.72,665.45Z"/><path class="cls-2" d="M127.8,665a11.27,11.27,0,0,1-2.56,7.37,8.29,8.29,0,0,1-6.74,3.13,6.15,6.15,0,0,1-4.75-2.23,8.28,8.28,0,0,1-2-5.75,10.71,10.71,0,0,1,2.55-7.17,8.44,8.44,0,0,1,6.79-3,6.31,6.31,0,0,1,4.75,2.07A7.81,7.81,0,0,1,127.8,665Zm-3,.51a7.71,7.71,0,0,0-1.11-4.21,3.62,3.62,0,0,0-3.23-1.75,4.75,4.75,0,0,0-4.18,2.46,9.61,9.61,0,0,0-1.57,5.31,7.53,7.53,0,0,0,1.14,4.21,3.64,3.64,0,0,0,3.26,1.75,4.71,4.71,0,0,0,4.14-2.45A9.79,9.79,0,0,0,124.81,665.55Z"/><path class="cls-2" d="M155.56,658q0,1.57-3.69,8.73t-3.78,8.16h-2.27a53.68,53.68,0,0,0-1.15-5.65q-1.15-5-1.68-8h-.14c-.79,2.11-2,4.81-3.59,8.11a43,43,0,0,0-2.48,5.55H134.5a72.34,72.34,0,0,0-1.84-8.14,60.85,60.85,0,0,1-1.84-8.56l3.1-.19a48.13,48.13,0,0,0,1.18,7.12,61.57,61.57,0,0,1,1.17,6.47h.18q.13-1.38,2.79-6.88c1.77-3.66,2.66-5.84,2.66-6.52h2.85a61.94,61.94,0,0,0,1.38,6.74,65,65,0,0,1,1.38,6.66h.17a40.23,40.23,0,0,1,2.45-6.36q2.35-5.43,2.35-7Z"/><path class="cls-2" d="M172.12,661.48a3.92,3.92,0,0,1-2.2,3.6c-1.87,1-5,1.62-9.53,1.7a7.63,7.63,0,0,0,1.1,4.6,4.37,4.37,0,0,0,3.7,1.43,10.92,10.92,0,0,0,5.55-1.79l-.44,2.6a9.76,9.76,0,0,1-5.87,1.71q-3.59,0-5.28-2.16a8.52,8.52,0,0,1-1.69-5.45,10.09,10.09,0,0,1,2.83-7.61,9.19,9.19,0,0,1,6.55-2.73,6.22,6.22,0,0,1,3.76,1.09A3.51,3.51,0,0,1,172.12,661.48Zm-2.8.07a1.59,1.59,0,0,0-.86-1.44,4.4,4.4,0,0,0-2.22-.5,5.71,5.71,0,0,0-3.56,1.27,6.12,6.12,0,0,0-2.13,3.88c3.6-.07,6.06-.45,7.4-1.14A2.24,2.24,0,0,0,169.32,661.55Z"/><path class="cls-2" d="M186.44,658l-1.05,2.79a8.77,8.77,0,0,0-2.36-.35c-2.68,0-4.18,1.39-4.48,4.15-.43,4-.75,7.44-.93,10.3l-2.87.18A113,113,0,0,0,176,662.72a43.07,43.07,0,0,0-.28-4.5l3-.44a25.11,25.11,0,0,1,.14,2.59H179q2.12-2.8,4.52-2.8A13.62,13.62,0,0,1,186.44,658Z"/><path class="cls-2" d="M192.47,657.82a23.29,23.29,0,0,1-.31,3.49c-.21,1.48-.44,3.32-.67,5.51q-.27,2.49-.58,8l-3.06.18q.41-2.78,1.09-8.21a64.2,64.2,0,0,0,.37-6.49c0-.83,0-1.51-.07-2Zm1.27-5.19a2.49,2.49,0,0,1-.67,1.74,2.21,2.21,0,0,1-1.69.72c-1.07,0-1.6-.56-1.6-1.7a2.38,2.38,0,0,1,.67-1.72,2.23,2.23,0,0,1,1.69-.71C193.2,651,193.74,651.52,193.74,652.63Z"/><path class="cls-2" d="M211.07,662.83q0,1.38-.4,5.66t-.39,6.36l-3,.18q0-.78.51-5a57.44,57.44,0,0,0,.51-6.36,4.21,4.21,0,0,0-.75-2.86,3.09,3.09,0,0,0-2.35-.8q-1.9,0-3.68,2.51a11.36,11.36,0,0,0-2.07,5.53q-.37,3.93-.59,6.78L196,675a113,113,0,0,0,1.23-12.31,43.07,43.07,0,0,0-.28-4.5l3-.44c.07,1,.11,2.4.11,4.1h.14q2.28-4.27,6.29-4.27Q211.07,657.61,211.07,662.83Z"/><path class="cls-2" d="M231.88,655.94l-.53,2.42c-1.92,0-3.09.37-3.51,1.09l0,.14a5.33,5.33,0,0,1,.77,2.78,6,6,0,0,1-2.15,4.89,8.16,8.16,0,0,1-5.37,1.77,7.47,7.47,0,0,1-2.65-.35,2.34,2.34,0,0,0-1,2,1.17,1.17,0,0,0,.81,1.21,34.66,34.66,0,0,0,6.31.29q4.75,0,4.76,3.69a6.93,6.93,0,0,1-3,5.84,11.17,11.17,0,0,1-6.84,2.21q-3.69,0-5.25-1.36a4.78,4.78,0,0,1-1.55-3.77c0-2.19,1.15-3.78,3.46-4.75l0-.16a2.17,2.17,0,0,1-1.07-2.12,4.58,4.58,0,0,1,2-3.47l0-.14a4,4,0,0,1-1.37-1.51,4.87,4.87,0,0,1-.69-2.57,5.77,5.77,0,0,1,2.12-4.79,8.35,8.35,0,0,1,5.39-1.69,7.25,7.25,0,0,1,4.34,1.16H227a5.78,5.78,0,0,1,1.16-2.41,2.41,2.41,0,0,1,1.81-.69A5.09,5.09,0,0,1,231.88,655.94ZM226.61,677a1.73,1.73,0,0,0-1-1.81,15.74,15.74,0,0,0-4.58-.4,29.41,29.41,0,0,1-3.45-.21,3.83,3.83,0,0,0-2.39,3.62q0,3.71,4.59,3.71a8.28,8.28,0,0,0,4.85-1.38A4.14,4.14,0,0,0,226.61,677Zm-.79-14.15a3.16,3.16,0,0,0-1.11-2.58,3.9,3.9,0,0,0-2.62-.85,4.21,4.21,0,0,0-4.39,4.38,3.09,3.09,0,0,0,1,2.49,4.07,4.07,0,0,0,2.75.87,4.28,4.28,0,0,0,3.13-1.2A4.13,4.13,0,0,0,225.82,662.88Z"/><path class="cls-2" d="M256.42,665a11.27,11.27,0,0,1-2.56,7.37,8.29,8.29,0,0,1-6.74,3.13,6.15,6.15,0,0,1-4.75-2.23,8.28,8.28,0,0,1-2-5.75,10.71,10.71,0,0,1,2.55-7.17,8.44,8.44,0,0,1,6.79-3,6.31,6.31,0,0,1,4.75,2.07A7.81,7.81,0,0,1,256.42,665Zm-3,.51a7.71,7.71,0,0,0-1.11-4.21,3.62,3.62,0,0,0-3.23-1.75,4.75,4.75,0,0,0-4.18,2.46,9.61,9.61,0,0,0-1.57,5.31,7.53,7.53,0,0,0,1.14,4.21,3.64,3.64,0,0,0,3.26,1.75,4.71,4.71,0,0,0,4.14-2.45A9.79,9.79,0,0,0,253.43,665.55Z"/><path class="cls-2" d="M275.07,657.8q-1.23,9.78-1.23,13a30.1,30.1,0,0,0,.28,4l-3,.44c-.07-1-.1-2.4-.1-4.1h-.15q-2.28,4.27-6.29,4.27-4.59,0-4.59-5.22c0-.92.14-2.81.4-5.64s.39-5,.39-6.35l3.05-.35c0,.51-.19,2.18-.55,5a56.23,56.23,0,0,0-.54,6.44,4.22,4.22,0,0,0,.74,2.86,3.09,3.09,0,0,0,2.35.8c1.28,0,2.5-.84,3.68-2.52a11.37,11.37,0,0,0,2.07-5.52q.42-4.29.42-6.75Z"/><path class="cls-2" d="M290.14,658l-1.06,2.79a8.77,8.77,0,0,0-2.36-.35c-2.68,0-4.17,1.39-4.48,4.15q-.64,6-.93,10.3l-2.86.18a113,113,0,0,0,1.23-12.31,43.43,43.43,0,0,0-.29-4.5l3-.44c.09,1,.14,1.83.14,2.59h.14c1.4-1.87,2.91-2.8,4.51-2.8A13.63,13.63,0,0,1,290.14,658Z"/><path class="cls-2" d="M311.76,658l-.72,2.76a11.49,11.49,0,0,0-3.5-.55,5.1,5.1,0,0,0-4.23,2,7.66,7.66,0,0,0-1.59,4.83,6.93,6.93,0,0,0,1.12,4.12,3.76,3.76,0,0,0,3.29,1.57A9.16,9.16,0,0,0,311,671.2l-.44,2.6a7.48,7.48,0,0,1-5,1.53,6.09,6.09,0,0,1-5.17-2.39,8.73,8.73,0,0,1-1.6-5.42,9.88,9.88,0,0,1,2.63-6.91,9.22,9.22,0,0,1,7.15-2.86A14.57,14.57,0,0,1,311.76,658Z"/><path class="cls-2" d="M330,665a11.27,11.27,0,0,1-2.56,7.37,8.29,8.29,0,0,1-6.74,3.13,6.15,6.15,0,0,1-4.75-2.23,8.28,8.28,0,0,1-2-5.75,10.71,10.71,0,0,1,2.55-7.17,8.43,8.43,0,0,1,6.78-3,6.31,6.31,0,0,1,4.76,2.07A7.81,7.81,0,0,1,330,665Zm-3,.51a7.71,7.71,0,0,0-1.11-4.21,3.62,3.62,0,0,0-3.23-1.75,4.75,4.75,0,0,0-4.18,2.46,9.61,9.61,0,0,0-1.57,5.31,7.53,7.53,0,0,0,1.14,4.21,3.64,3.64,0,0,0,3.26,1.75,4.71,4.71,0,0,0,4.14-2.45A9.79,9.79,0,0,0,327,665.55Z"/><path class="cls-2" d="M358.34,662.83q0,2-.4,6t-.39,6l-3,.18c0-.9.16-2.73.5-5.47s.5-4.64.5-5.69a5.35,5.35,0,0,0-.61-3,2.17,2.17,0,0,0-1.92-.87,4.59,4.59,0,0,0-3.81,2.32,12,12,0,0,0-1.92,5.72c-.28,2.86-.43,5.12-.43,6.78l-3,.18c0-.79.17-2.59.51-5.42s.51-4.74.51-5.74a5.45,5.45,0,0,0-.6-3,2.2,2.2,0,0,0-1.93-.87c-1.42,0-2.67.82-3.76,2.44a12.13,12.13,0,0,0-2,5.6q-.42,4.24-.6,6.78l-2.86.18a113,113,0,0,0,1.23-12.31,43.07,43.07,0,0,0-.28-4.5l3-.44c.07,1.15.1,2.52.1,4.1h.15c1.35-2.85,3.33-4.27,5.92-4.27a4,4,0,0,1,3.15,1.2,4.44,4.44,0,0,1,1,3.07h.16q2.18-4.27,6.08-4.27Q358.34,657.61,358.34,662.83Z"/><path class="cls-2" d="M387.24,662.83c0,1.31-.14,3.31-.4,6s-.39,4.7-.39,6l-3,.18c0-.9.17-2.73.51-5.47s.5-4.64.5-5.69a5.44,5.44,0,0,0-.61-3A2.18,2.18,0,0,0,382,660a4.59,4.59,0,0,0-3.81,2.32,12,12,0,0,0-1.92,5.72q-.44,4.29-.43,6.78l-3,.18c0-.79.17-2.59.51-5.42s.51-4.74.51-5.74a5.45,5.45,0,0,0-.6-3,2.2,2.2,0,0,0-1.93-.87c-1.42,0-2.67.82-3.76,2.44a12.13,12.13,0,0,0-2,5.6q-.42,4.24-.6,6.78l-2.86.18a113,113,0,0,0,1.23-12.31c0-1.23-.1-2.73-.28-4.5l3-.44c.07,1.15.1,2.52.1,4.1h.14q2-4.27,5.93-4.27a4,4,0,0,1,3.14,1.2,4.4,4.4,0,0,1,1,3.07h.16q2.18-4.27,6.08-4.27Q387.24,657.61,387.24,662.83Z"/><path class="cls-2" d="M406.47,657.8q-1.23,9.78-1.23,13a30.1,30.1,0,0,0,.28,4l-3,.44c-.07-1-.11-2.4-.11-4.1h-.14q-2.28,4.27-6.29,4.27-4.59,0-4.59-5.22c0-.92.13-2.81.4-5.64s.39-5,.39-6.35l3-.35c0,.51-.18,2.18-.54,5a54.49,54.49,0,0,0-.55,6.44,4.21,4.21,0,0,0,.75,2.86,3.09,3.09,0,0,0,2.35.8q1.9,0,3.68-2.52A11.35,11.35,0,0,0,403,664.9q.44-4.29.43-6.75Z"/><path class="cls-2" d="M424.89,662.83q0,1.38-.4,5.66t-.39,6.36l-3,.18q0-.78.51-5a57.44,57.44,0,0,0,.51-6.36,4.21,4.21,0,0,0-.75-2.86,3.09,3.09,0,0,0-2.35-.8q-1.91,0-3.68,2.51a11.36,11.36,0,0,0-2.07,5.53q-.37,3.93-.59,6.78l-2.87.18a113,113,0,0,0,1.23-12.31,43.07,43.07,0,0,0-.28-4.5l3-.44c.07,1,.11,2.4.11,4.1H414q2.28-4.27,6.29-4.27Q424.89,657.61,424.89,662.83Z"/><path class="cls-2" d="M433.29,657.82a23.29,23.29,0,0,1-.31,3.49c-.21,1.48-.44,3.32-.67,5.51q-.27,2.49-.58,8l-3.06.18q.4-2.78,1.09-8.21a64.2,64.2,0,0,0,.37-6.49c0-.83,0-1.51-.07-2Zm1.27-5.19a2.49,2.49,0,0,1-.67,1.74,2.21,2.21,0,0,1-1.69.72c-1.06,0-1.6-.56-1.6-1.7a2.38,2.38,0,0,1,.67-1.72A2.24,2.24,0,0,1,433,651C434,651,434.56,651.52,434.56,652.63Z"/><path class="cls-2" d="M447.07,671.64l-.44,2.33a6.62,6.62,0,0,1-3.79,1.25,4.05,4.05,0,0,1-3.36-1.19,6.06,6.06,0,0,1-1-3.78,89,89,0,0,1,1-9.41c-.62,0-1.57,0-2.86.11l.37-2.55c1.1.07,2.06.1,2.88.1q.1-.72.75-5l2.64-.28q-.31,1.8-.83,5.29c1.09,0,2.65,0,4.68-.17l-.35,2.62c-1.93-.07-3.51-.11-4.73-.11a63.16,63.16,0,0,0-.91,8.46,5.18,5.18,0,0,0,.51,2.74,1.94,1.94,0,0,0,1.72.74A7.18,7.18,0,0,0,447.07,671.64Z"/><path class="cls-2" d="M454.84,657.82a23.29,23.29,0,0,1-.31,3.49c-.21,1.48-.44,3.32-.67,5.51q-.27,2.49-.58,8l-3.06.18q.4-2.78,1.09-8.21a64.2,64.2,0,0,0,.37-6.49c0-.83,0-1.51-.07-2Zm1.27-5.19a2.45,2.45,0,0,1-.67,1.74,2.21,2.21,0,0,1-1.69.72c-1.06,0-1.6-.56-1.6-1.7a2.43,2.43,0,0,1,.67-1.72,2.24,2.24,0,0,1,1.69-.71C455.57,651,456.11,651.52,456.11,652.63Z"/><path class="cls-2" d="M472.88,661.48a3.92,3.92,0,0,1-2.2,3.6q-2.79,1.57-9.53,1.7a7.63,7.63,0,0,0,1.1,4.6,4.37,4.37,0,0,0,3.7,1.43,11,11,0,0,0,5.56-1.79l-.44,2.6a9.8,9.8,0,0,1-5.87,1.71q-3.6,0-5.29-2.16a8.52,8.52,0,0,1-1.69-5.45,10.05,10.05,0,0,1,2.84-7.61,9.15,9.15,0,0,1,6.54-2.73,6.27,6.27,0,0,1,3.77,1.09A3.53,3.53,0,0,1,472.88,661.48Zm-2.8.07a1.57,1.57,0,0,0-.86-1.44,4.38,4.38,0,0,0-2.21-.5,5.67,5.67,0,0,0-3.56,1.27,6.08,6.08,0,0,0-2.14,3.88q5.4-.1,7.4-1.14A2.22,2.22,0,0,0,470.08,661.55Z"/><path class="cls-2" d="M486.78,658l-.79,2.55a11.68,11.68,0,0,0-4-.65c-2.28,0-3.41.76-3.41,2.28a1.74,1.74,0,0,0,.65,1.39,10.12,10.12,0,0,0,2.48,1.34q4.45,1.92,4.46,4.87,0,5.41-6.82,5.41a26.18,26.18,0,0,1-5.1-.47l.81-2.59a12.8,12.8,0,0,0,4.54.78q3.94,0,3.95-2.27,0-1.59-3.16-3c-3-1.31-4.5-2.94-4.5-4.87a4.45,4.45,0,0,1,1.84-3.85,7.51,7.51,0,0,1,4.52-1.34A21.16,21.16,0,0,1,486.78,658Z"/><path class="cls-2" d="M507.28,671.64l-.44,2.33a6.65,6.65,0,0,1-3.8,1.25,4.08,4.08,0,0,1-3.36-1.19,6.06,6.06,0,0,1-.95-3.78,90,90,0,0,1,1-9.41c-.62,0-1.58,0-2.87.11l.37-2.55c1.1.07,2.06.1,2.88.1.07-.48.33-2.15.76-5l2.64-.28c-.22,1.2-.49,3-.83,5.29,1.09,0,2.65,0,4.68-.17L507,661c-1.93-.07-3.51-.11-4.72-.11a63.64,63.64,0,0,0-.92,8.46,5.18,5.18,0,0,0,.51,2.74,2,2,0,0,0,1.72.74A7.21,7.21,0,0,0,507.28,671.64Z"/><path class="cls-2" d="M526.3,665a11.32,11.32,0,0,1-2.56,7.37,8.3,8.3,0,0,1-6.74,3.13,6.17,6.17,0,0,1-4.76-2.23,8.28,8.28,0,0,1-2-5.75,10.71,10.71,0,0,1,2.55-7.17,8.43,8.43,0,0,1,6.78-3,6.31,6.31,0,0,1,4.76,2.07A7.85,7.85,0,0,1,526.3,665Zm-3,.51a7.63,7.63,0,0,0-1.12-4.21,3.61,3.61,0,0,0-3.22-1.75,4.78,4.78,0,0,0-4.19,2.46,9.68,9.68,0,0,0-1.56,5.31,7.61,7.61,0,0,0,1.13,4.21,3.66,3.66,0,0,0,3.26,1.75,4.69,4.69,0,0,0,4.14-2.45A9.72,9.72,0,0,0,523.31,665.55Z"/><path class="cls-2" d="M547.14,671.64l-.43,2.33a6.68,6.68,0,0,1-3.8,1.25,4.05,4.05,0,0,1-3.36-1.19,6.06,6.06,0,0,1-.95-3.78,91.91,91.91,0,0,1,1-9.41c-.62,0-1.57,0-2.86.11l.37-2.55c1.1.07,2.06.1,2.88.1.07-.48.32-2.15.76-5l2.63-.28q-.32,1.8-.82,5.29c1.09,0,2.65,0,4.67-.17l-.35,2.62c-1.93-.07-3.51-.11-4.73-.11a63.16,63.16,0,0,0-.91,8.46,5.18,5.18,0,0,0,.51,2.74,1.94,1.94,0,0,0,1.72.74A7.18,7.18,0,0,0,547.14,671.64Z"/><path class="cls-2" d="M562,658l-1.05,2.79a8.77,8.77,0,0,0-2.36-.35c-2.68,0-4.18,1.39-4.48,4.15q-.66,6-.93,10.3l-2.87.18a113,113,0,0,0,1.23-12.31,43.07,43.07,0,0,0-.28-4.5l3-.44c.09,1,.14,1.83.14,2.59h.14c1.41-1.87,2.91-2.8,4.52-2.8A13.62,13.62,0,0,1,562,658Z"/><path class="cls-2" d="M577.41,657.36a84,84,0,0,0-1.6,13,35.18,35.18,0,0,0,.32,4.33l-3,.44c-.07-1-.11-2.35-.11-3.92h-.15c-1.49,2.7-3.45,4.06-5.89,4.06a3.66,3.66,0,0,1-3.25-1.7,7.93,7.93,0,0,1-1.11-4.42,10.77,10.77,0,0,1,3.07-7.65c2.06-2.17,5-3.27,8.85-3.32l.77-.54Zm-3.19,2.8q-4.47.09-6.52,2.43a9.16,9.16,0,0,0-2.05,6.22c0,2.67.9,4,2.68,4q1.86,0,3.42-2.68a14.94,14.94,0,0,0,2-4.85A43.56,43.56,0,0,0,574.22,660.16Z"/><path class="cls-2" d="M595.66,662.83q0,1.38-.4,5.66t-.39,6.36l-3,.18q0-.78.51-5a57.44,57.44,0,0,0,.51-6.36,4.21,4.21,0,0,0-.75-2.86,3.09,3.09,0,0,0-2.35-.8q-1.91,0-3.68,2.51a11.35,11.35,0,0,0-2.06,5.53q-.39,3.93-.6,6.78l-2.87.18a113,113,0,0,0,1.23-12.31,43.07,43.07,0,0,0-.28-4.5l3-.44c.07,1,.11,2.4.11,4.1h.14q2.28-4.27,6.29-4.27Q595.66,657.61,595.66,662.83Z"/><path class="cls-2" d="M610.71,658l-.79,2.55a11.74,11.74,0,0,0-4-.65c-2.27,0-3.41.76-3.41,2.28a1.77,1.77,0,0,0,.65,1.39,10.32,10.32,0,0,0,2.48,1.34q4.47,1.92,4.47,4.87,0,5.41-6.82,5.41a26.18,26.18,0,0,1-5.1-.47l.81-2.59a12.75,12.75,0,0,0,4.53.78q4,0,4-2.27,0-1.59-3.17-3c-3-1.31-4.5-2.94-4.5-4.87a4.46,4.46,0,0,1,1.85-3.85,7.51,7.51,0,0,1,4.52-1.34A21.22,21.22,0,0,1,610.71,658Z"/><path class="cls-2" d="M625.17,649.87l-.54,2.22a15.47,15.47,0,0,0-2-.12,2.33,2.33,0,0,0-2.24,1.3,17.11,17.11,0,0,0-1.1,5.23c1.1,0,2.65,0,4.64-.17l-.35,2.62c-2.16-.07-3.66-.11-4.52-.11q-.5,6.45-.91,12t-1.74,7.41a6.48,6.48,0,0,1-3.61,2.46l-.7-1.37a7.49,7.49,0,0,0,2.31-3,28.07,28.07,0,0,0,1.15-6.55q.48-4.83.93-10.95c-.68,0-1.87,0-3.57.11l.41-2.59c1.52.1,2.66.14,3.41.14.33-3.07,1-5.32,1.94-6.75a4.9,4.9,0,0,1,4.35-2.14A9,9,0,0,1,625.17,649.87Z"/><path class="cls-2" d="M640.85,665a11.31,11.31,0,0,1-2.55,7.37,8.32,8.32,0,0,1-6.75,3.13,6.17,6.17,0,0,1-4.75-2.23,8.28,8.28,0,0,1-2-5.75,10.71,10.71,0,0,1,2.55-7.17,8.44,8.44,0,0,1,6.79-3,6.29,6.29,0,0,1,4.75,2.07A7.81,7.81,0,0,1,640.85,665Zm-3,.51a7.71,7.71,0,0,0-1.12-4.21,3.61,3.61,0,0,0-3.23-1.75,4.76,4.76,0,0,0-4.18,2.46,9.68,9.68,0,0,0-1.56,5.31,7.52,7.52,0,0,0,1.13,4.21,3.65,3.65,0,0,0,3.26,1.75,4.71,4.71,0,0,0,4.14-2.45A9.72,9.72,0,0,0,637.87,665.55Z"/><path class="cls-2" d="M655.74,658l-1,2.79a8.77,8.77,0,0,0-2.36-.35c-2.68,0-4.18,1.39-4.48,4.15q-.65,6-.93,10.3l-2.87.18a113,113,0,0,0,1.23-12.31,43.07,43.07,0,0,0-.28-4.5l3-.44a25.11,25.11,0,0,1,.14,2.59h.14q2.12-2.8,4.52-2.8A13.47,13.47,0,0,1,655.74,658Z"/><path class="cls-2" d="M682.27,662.83q0,2-.4,6t-.39,6l-3,.18c0-.9.16-2.73.5-5.47s.5-4.64.5-5.69a5.35,5.35,0,0,0-.61-3A2.17,2.17,0,0,0,677,660a4.59,4.59,0,0,0-3.81,2.32,12,12,0,0,0-1.92,5.72c-.28,2.86-.43,5.12-.43,6.78l-3,.18c0-.79.17-2.59.51-5.42s.51-4.74.51-5.74a5.45,5.45,0,0,0-.6-3,2.2,2.2,0,0,0-1.93-.87c-1.42,0-2.67.82-3.76,2.44a12.13,12.13,0,0,0-2,5.6q-.42,4.24-.6,6.78l-2.86.18a113,113,0,0,0,1.23-12.31,43.07,43.07,0,0,0-.28-4.5l3-.44c.07,1.15.1,2.52.1,4.1h.14q2-4.27,5.93-4.27a4,4,0,0,1,3.15,1.2,4.44,4.44,0,0,1,1,3.07h.16q2.17-4.27,6.08-4.27Q682.27,657.61,682.27,662.83Z"/><path class="cls-4" d="M346.16,100.12c-59.87.83-108.72,49.74-109.47,109.62a110.86,110.86,0,0,0,40.49,87.19c-4.26,4.72,14.38,35.8,34.58,33.15,34.46,1.28,66.38-.25,67.66,15.83s-42.9,10.21-66.9,9.45c-21.7-5.62-25.53-14.3-30.13-14h0a45.53,45.53,0,0,0,28.83,27.09A36.43,36.43,0,0,0,324,370.1c55.38-2.33,57.71,10.37,56.51,15.42a4.6,4.6,0,0,1-2.23,2.89c-26.21,15.28-82.62-3.12-85.38.14,4.6,12.51,15.92,16.85,26,17.87,49.22-.42,50.08,13.73,49,18.43a3.18,3.18,0,0,1-1.58,2.1c-21.65,11.73-52.51-.6-52.53-.61s9.45,19.91,21.45,22.72c.25,0,4.34-.25,28.85,0,28.59-15.57,28.85-28.85,31.15-34.72,10.21-53.36,5.36-81.7-8.43-90.9s-61-6.12-77.11-11.49c-6-5.24-8-8.23-6.57-20.55h0s85.07-1.88,99,9.17,12,12.65,12.75,13.43h0a91.82,91.82,0,0,1,1.94-15.89s42-51.73,42-86.94A111.05,111.05,0,0,0,346.16,100.12Z"/><path class="cls-1" d="M302.72,131.77c1.32-.13,2.53-.67,3.86-.74a25,25,0,0,0,3.52-.42c1.4-.28,2.11-1.12,3.31-1.72a19.57,19.57,0,0,1,7.82-1.59c2.3-.1,5.28,0,7.15,1.11a10.22,10.22,0,0,0,1.48.74c.56.24,1.25,0,1.52.54s-.18,1.76-.11,2.49a7.54,7.54,0,0,0,.6,2.12,3.06,3.06,0,0,0,.4.15c0-.13.15-.23.18-.37a31.6,31.6,0,0,0,4,2.4c.68.42,1.29,1.09,2,1.44a13.29,13.29,0,0,0,2,.6c1.91.59,3.72,1.62,5.56,2.38.84.35,1.3.6,2,.17a3.64,3.64,0,0,0,1.2-1.35,4.64,4.64,0,0,0,.26-4.16c.84.39,1.58,1.26,2.62,1.4.24,0,.47-.2.89-.11a5.11,5.11,0,0,1,1.12.44c1.07.55,1.31,1.26,2.71,1.33a6.26,6.26,0,0,1,1.92.08c-.2.18-.16,0-.3-.1a4.79,4.79,0,0,0,1.52,1.57,10,10,0,0,0,2.51.32c1.81.28,3.35-.16,5.1-.25s3.35.44,5.11.17c.78-.12,1.55-.26,2.34-.37,1.16-.17,1.25,0,1.19,1.19a48.58,48.58,0,0,0,.16,5.66c-.61-.59-2.37-2.14-3.19-2.19a3.36,3.36,0,0,0,1.1,2.54,9.8,9.8,0,0,1,1.23,2.8c.82,2.1,2.26,4,3.11,6.09,1,2.55,2.25,5.15,3.44,7.65.51,1.08,1.19,1.95,1.79,3,.76,1.31,1.32,2.83,2.16,4.09s2.21,2.28,3,3.79c.63,1.18,1.24,2.4,1.85,3.53a10.69,10.69,0,0,0-.75,1.32c-.13.24,1.51.49,1.94.65a3.09,3.09,0,0,1,1.44,1.33c.71,1.4.86,2.94,2.79,1.79a5.38,5.38,0,0,1,2.25-.7c.69-.07,1.32.18,2-.14.42-.2.57-.47,1.11-.58.39-.09.82-.1,1.19-.2a8.71,8.71,0,0,0,1.84-.83c1-.57,3.2-1.58,3.18-2.94a39.6,39.6,0,0,0-.41,5.33,8.76,8.76,0,0,1-1.34,4.75c-1.06,1.57-2,3.21-3.19,4.69-.7.89-1.29,1.91-2.06,2.73s-1.5,1.1-1.94,1.94a6.53,6.53,0,0,1-1.35,1.82c-.62.59-1.54.78-2.07,1.43.12.21.19.08.26.08-1,1-2.82,2-3.54,3.3a11.6,11.6,0,0,1-2.74,3.27,9.84,9.84,0,0,0-3.33,8.72,9.27,9.27,0,0,1,.21,2.82,6.25,6.25,0,0,0-.05,2.72,11,11,0,0,1,.64,2.14c.1.9.27,1.92.31,2.81a24.55,24.55,0,0,0,0,2.85,24.23,24.23,0,0,1,.41,2.57,5.45,5.45,0,0,1-.74,2.71c-.46,1.05-1.08,1.23-2,1.79a12.6,12.6,0,0,0-2.22,1.92c-.54.56-.89,1.41-1.5,1.87s-1.54.61-2.14,1.15a3.71,3.71,0,0,0-1.05,2.35c-.07.38-.31,1-.16,1.29-.5,1.4.2,3.44-.19,4.94a6.36,6.36,0,0,1-2.53,3.07c-1.13.88-2.44,1.35-2.94,2.79-.25.71,0,1.43-.23,2.17s-.57,1.32-.84,2a8.86,8.86,0,0,1-1.18,2.18,4.13,4.13,0,0,0-1,2.08c-.06-.12-3.55,4.3-6,5.14a29,29,0,0,0-3.66,1.71,12.31,12.31,0,0,1-4,.83c-1.69.27-5.1.17-5.11.24-1.29-.57-3.72-1.19-4.51-2.55s-1.2-2.94-1.92-4.31a5.81,5.81,0,0,1-.89-2.23,5.3,5.3,0,0,0-.95-2.27,11.08,11.08,0,0,1-.84-2c-.31-.73-.77-1.31-1-2-.53-1.48-1.07-3-1.54-4.47a14.15,14.15,0,0,1-.66-2.38,10,10,0,0,0-.35-2.63c-1.28-3.11-3.69-6.23-3.68-9.75,0-1.81-.16-3.68-.16-5.6s1-3.26,1.88-4.78c.18-.3.42-.73.25-.86,0-.66.2-1.49.25-2.26s0-1.66,0-2.51a10.68,10.68,0,0,0-1-4.61c-.75-1.4-.84-2.92-1.58-4.38a22.29,22.29,0,0,0-1.18-1.92c-.39-.59-1-.85-1.54-1.38-1.25-1.18-2.73-2-3.88-3.29.7-1.55.65-3.67,1.62-5.08a10,10,0,0,0,1.35-1.88,6.07,6.07,0,0,0-.24-2.5c-.2-1,.28-2,.13-3-.14-.05-.27-.15-.4-.18a9.65,9.65,0,0,0-3.87.37,6.33,6.33,0,0,0-2,.39,9.59,9.59,0,0,0-1.31,1.09c-.5.41-1,.74-1.55,1.1a4.2,4.2,0,0,0,.48-1.92,6.42,6.42,0,0,0-.83-1.52,3.57,3.57,0,0,0-1.1-1.28c-.43-.33-.22-.33-.79-.46a6.17,6.17,0,0,0-1.05-.06c-1.36,0-2.62.49-4.05.15s-2.64.2-4.1.33a7.79,7.79,0,0,0-2.24.64,15.05,15.05,0,0,1-2.22.18,38.2,38.2,0,0,1-3.74.81,8.91,8.91,0,0,1-3.74-.24c-2.24-.47-4.78-.44-6.74-1.66-1-.63-2.74-2.26-3-2.12-.55-.26-.64-1.49-1-2-.47-.71-1-1.41-1.48-2.1a14.13,14.13,0,0,0-1.73-1.73,9.77,9.77,0,0,1-1.19-2.13c-.8-1.28-2.05-2.18-2.65-3.56a9.3,9.3,0,0,1-.52-5.09,8.52,8.52,0,0,0-.33-2.3,10.5,10.5,0,0,1,.17-2.51,26.08,26.08,0,0,0-.17-4.81c-.19-3.54,1.53-6.49,3.49-9.43a23.71,23.71,0,0,1,3.45-4.05c1.19-1.15,2.11-2.55,3.29-3.73a6.56,6.56,0,0,1,1-.89,2.17,2.17,0,0,0-.24.07c-.08-.34,1.54-1.88,1.72-2.51a18.83,18.83,0,0,1,1.33-3,8.54,8.54,0,0,1,1.58-2.53c.77-.83,1.64-1.34,2.43-2.19s1.62-1.62,2.31-2.52C298.9,132.27,301.66,131.87,302.72,131.77Z"/><path class="cls-1" d="M396.76,234.91s9.34-2,9.34-7.37c.46-.18,3-.52,2.59-3.46.46-.46.4-2,1.21-1.21s3.63,8.3,2.65,10.89c-.8-.06-2.59-5.13-1.44,1.15a25.53,25.53,0,0,0-1.09,4.85c-.12,1.44-5.48,20.23-6.29,20.8s-3.05.52-4,1.79c-1.16.69-5.48-1-5.65-4.55.57-2-1.62-3.81-1-6.46s1.73-2,2.36-3.4a10,10,0,0,0,0-7.9C396.07,236.53,396,236.12,396.76,234.91Z"/></g></g></svg>